<svg width="47" height="47" viewBox="0 0 47 47" fill="none" xmlns="http://www.w3.org/2000/svg">
<g clip-path="url(#clip0_1_1250)">
<path d="M21.9434 1.46055L1.7723 21.5479C0.687869 22.6278 0.687869 24.3721 1.7723 25.452L21.9434 45.5393C23.0278 46.6193 24.7794 46.6193 25.8638 45.5393L34.3213 37.117C35.2925 36.1499 35.2925 34.5818 34.3213 33.6146C33.3501 32.6475 31.7755 32.6475 30.8043 33.6146L24.3928 39.9995C24.1228 40.2683 23.7132 40.2683 23.4433 39.9995L7.33521 23.9584C7.0653 23.6896 7.0653 23.2816 7.33521 23.0128L23.4433 6.97166C23.7132 6.70287 24.1228 6.70287 24.3928 6.97166L30.8043 13.3566C31.7755 14.3237 33.3501 14.3237 34.3213 13.3566C35.2925 12.3894 35.2925 10.8213 34.3213 9.85419L25.8647 1.43277C24.7759 0.376211 23.0237 0.384764 21.9434 1.46055Z" fill="url(#paint0_linear_1_1250)"/>
<path d="M21.9434 1.46055L1.7723 21.5479C0.687869 22.6278 0.687869 24.3721 1.7723 25.452L21.9434 45.5393C23.0278 46.6193 24.7794 46.6193 25.8638 45.5393L34.3213 37.117C35.2925 36.1499 35.2925 34.5818 34.3213 33.6146C33.3501 32.6475 31.7755 32.6475 30.8043 33.6146L24.3928 39.9995C24.1228 40.2683 23.7132 40.2683 23.4433 39.9995L7.33521 23.9584C7.0653 23.6896 7.0653 23.2816 7.33521 23.0128L23.4433 6.97166C24.1154 6.3942 25.2119 5.22457 26.8222 4.95101C28.019 4.74771 29.3274 5.19517 30.7474 6.2934C29.798 5.34799 28.1705 3.72777 25.8647 1.43277C24.7759 0.376211 23.0237 0.384764 21.9434 1.46055Z" fill="url(#paint1_linear_1_1250)"/>
<path d="M36.2735 31.7465C37.2447 32.7136 38.8193 32.7136 39.7905 31.7465L46.0291 25.5337C47.1136 24.4538 47.1136 22.7095 46.0293 21.6297L39.7362 15.3851C38.7628 14.4191 37.1876 14.4204 36.2159 15.3882C35.2447 16.3553 35.2447 17.9234 36.2159 18.8906L40.4662 23.1232C40.7361 23.392 40.7361 23.8 40.4662 24.0688L36.2735 28.2441C35.3023 29.2112 35.3023 30.7793 36.2735 31.7465Z" fill="url(#paint2_linear_1_1250)"/>
<path d="M24.0044 29.0239C27.0122 29.0239 29.4506 26.5957 29.4506 23.6004C29.4506 20.605 27.0122 18.1768 24.0044 18.1768C20.9965 18.1768 18.5582 20.605 18.5582 23.6004C18.5582 26.5957 20.9965 29.0239 24.0044 29.0239Z" fill="url(#paint3_linear_1_1250)"/>
</g>
<defs>
<linearGradient id="paint0_linear_1_1250" x1="22.1301" y1="0.646974" x2="41.2637" y2="12.3706" gradientUnits="userSpaceOnUse">
<stop stop-color="#4285EB"/>
<stop offset="1" stop-color="#2EC7FF"/>
</linearGradient>
<linearGradient id="paint1_linear_1_1250" x1="24.7011" y1="0.646972" x2="15.2944" y2="49.4258" gradientUnits="userSpaceOnUse">
<stop stop-color="#29CDFF"/>
<stop offset="0.378601" stop-color="#148EFF"/>
<stop offset="1" stop-color="#0A60FF"/>
</linearGradient>
<linearGradient id="paint2_linear_1_1250" x1="43.4009" y1="12.3507" x2="31.1406" y2="31.5889" gradientUnits="userSpaceOnUse">
<stop stop-color="#FA816E"/>
<stop offset="0.414726" stop-color="#F74A5C"/>
<stop offset="1" stop-color="#F51D2C"/>
</linearGradient>
<linearGradient id="paint3_linear_1_1250" x1="25.9789" y1="14.3054" x2="21.9059" y2="30.6528" gradientUnits="userSpaceOnUse">
<stop stop-color="#FA8E7D"/>
<stop offset="0.512635" stop-color="#F74A5C"/>
<stop offset="1" stop-color="#F51D2C"/>
</linearGradient>
<clipPath id="clip0_1_1250">
<rect width="46.1538" height="46" fill="white" transform="translate(0.807617 0.5)"/>
</clipPath>
</defs>
</svg>
